<?xml version="1.0" encoding="utf-8"?>
<svg xmlns="http://www.w3.org/2000/svg" xmlns:xlink="http://www.w3.org/1999/xlink" style="margin: auto; background: rgb(255, 255, 255); display: block; shape-rendering: auto;" width="231px" height="231px" viewBox="0 0 100 100" preserveAspectRatio="xMidYMid">
<g transform="rotate(0 50 50)">
  <rect x="46.5" y="23.5" rx="3.25" ry="3.25" width="7" height="13" fill="#706668">
    <animate attributeName="opacity" values="1;0" keyTimes="0;1" dur="0.5319148936170213s" begin="-0.4909983633387888s" repeatCount="indefinite"></animate>
  </rect>
</g><g transform="rotate(27.692307692307693 50 50)">
  <rect x="46.5" y="23.5" rx="3.25" ry="3.25" width="7" height="13" fill="#706668">
    <animate attributeName="opacity" values="1;0" keyTimes="0;1" dur="0.5319148936170213s" begin="-0.45008183306055644s" repeatCount="indefinite"></animate>
  </rect>
</g><g transform="rotate(55.38461538461539 50 50)">
  <rect x="46.5" y="23.5" rx="3.25" ry="3.25" width="7" height="13" fill="#706668">
    <animate attributeName="opacity" values="1;0" keyTimes="0;1" dur="0.5319148936170213s" begin="-0.40916530278232405s" repeatCount="indefinite"></animate>
  </rect>
</g><g transform="rotate(83.07692307692308 50 50)">
  <rect x="46.5" y="23.5" rx="3.25" ry="3.25" width="7" height="13" fill="#706668">
    <animate attributeName="opacity" values="1;0" keyTimes="0;1" dur="0.5319148936170213s" begin="-0.36824877250409166s" repeatCount="indefinite"></animate>
  </rect>
</g><g transform="rotate(110.76923076923077 50 50)">
  <rect x="46.5" y="23.5" rx="3.25" ry="3.25" width="7" height="13" fill="#706668">
    <animate attributeName="opacity" values="1;0" keyTimes="0;1" dur="0.5319148936170213s" begin="-0.3273322422258592s" repeatCount="indefinite"></animate>
  </rect>
</g><g transform="rotate(138.46153846153845 50 50)">
  <rect x="46.5" y="23.5" rx="3.25" ry="3.25" width="7" height="13" fill="#706668">
    <animate attributeName="opacity" values="1;0" keyTimes="0;1" dur="0.5319148936170213s" begin="-0.2864157119476268s" repeatCount="indefinite"></animate>
  </rect>
</g><g transform="rotate(166.15384615384616 50 50)">
  <rect x="46.5" y="23.5" rx="3.25" ry="3.25" width="7" height="13" fill="#706668">
    <animate attributeName="opacity" values="1;0" keyTimes="0;1" dur="0.5319148936170213s" begin="-0.2454991816693944s" repeatCount="indefinite"></animate>
  </rect>
</g><g transform="rotate(193.84615384615384 50 50)">
  <rect x="46.5" y="23.5" rx="3.25" ry="3.25" width="7" height="13" fill="#706668">
    <animate attributeName="opacity" values="1;0" keyTimes="0;1" dur="0.5319148936170213s" begin="-0.20458265139116202s" repeatCount="indefinite"></animate>
  </rect>
</g><g transform="rotate(221.53846153846155 50 50)">
  <rect x="46.5" y="23.5" rx="3.25" ry="3.25" width="7" height="13" fill="#706668">
    <animate attributeName="opacity" values="1;0" keyTimes="0;1" dur="0.5319148936170213s" begin="-0.1636661211129296s" repeatCount="indefinite"></animate>
  </rect>
</g><g transform="rotate(249.23076923076923 50 50)">
  <rect x="46.5" y="23.5" rx="3.25" ry="3.25" width="7" height="13" fill="#706668">
    <animate attributeName="opacity" values="1;0" keyTimes="0;1" dur="0.5319148936170213s" begin="-0.1227495908346972s" repeatCount="indefinite"></animate>
  </rect>
</g><g transform="rotate(276.9230769230769 50 50)">
  <rect x="46.5" y="23.5" rx="3.25" ry="3.25" width="7" height="13" fill="#706668">
    <animate attributeName="opacity" values="1;0" keyTimes="0;1" dur="0.5319148936170213s" begin="-0.0818330605564648s" repeatCount="indefinite"></animate>
  </rect>
</g><g transform="rotate(304.61538461538464 50 50)">
  <rect x="46.5" y="23.5" rx="3.25" ry="3.25" width="7" height="13" fill="#706668">
    <animate attributeName="opacity" values="1;0" keyTimes="0;1" dur="0.5319148936170213s" begin="-0.0409165302782324s" repeatCount="indefinite"></animate>
  </rect>
</g><g transform="rotate(332.3076923076923 50 50)">
  <rect x="46.5" y="23.5" rx="3.25" ry="3.25" width="7" height="13" fill="#706668">
    <animate attributeName="opacity" values="1;0" keyTimes="0;1" dur="0.5319148936170213s" begin="0s" repeatCount="indefinite"></animate>
  </rect>
</g>
<!-- [ldio] generated by https://loading.io/ --></svg>